<svg width="12" height="12" viewBox="0 0 12 12" fill="none" xmlns="http://www.w3.org/2000/svg">
<path d="M1.95 0C1.43283 0 0.936838 0.205446 0.571142 0.571142C0.205446 0.936838 0 1.43283 0 1.95V8.85C0 9.36717 0.205446 9.86316 0.571142 10.2289C0.936838 10.5946 1.43283 10.8 1.95 10.8H5.4132C5.23337 10.5195 5.09039 10.217 4.9878 9.9H1.95C1.67152 9.9 1.40445 9.78937 1.20754 9.59246C1.01062 9.39555 0.9 9.12848 0.9 8.85V1.95C0.9 1.3704 1.3704 0.9 1.95 0.9H8.85C9.4296 0.9 9.9 1.3704 9.9 1.95V4.9878C10.217 5.09039 10.5195 5.23337 10.8 5.4132V1.95C10.8 1.43283 10.5946 0.936838 10.2289 0.571142C9.86316 0.205446 9.36717 0 8.85 0H1.95ZM5.7 3.75C5.7 3.63065 5.74741 3.51619 5.8318 3.4318C5.91619 3.34741 6.03065 3.3 6.15 3.3H8.25C8.36935 3.3 8.48381 3.34741 8.5682 3.4318C8.65259 3.51619 8.7 3.63065 8.7 3.75C8.7 3.86935 8.65259 3.98381 8.5682 4.0682C8.48381 4.15259 8.36935 4.2 8.25 4.2H6.15C6.03065 4.2 5.91619 4.15259 5.8318 4.0682C5.74741 3.98381 5.7 3.86935 5.7 3.75ZM4.668 3.468C4.71221 3.4268 4.74767 3.37712 4.77227 3.32192C4.79686 3.26672 4.81009 3.20713 4.81115 3.14671C4.81222 3.08629 4.80111 3.02627 4.77847 2.97024C4.75584 2.91421 4.72215 2.86331 4.67942 2.82058C4.63669 2.77785 4.58579 2.74416 4.52976 2.72153C4.47373 2.69889 4.41371 2.68778 4.35329 2.68885C4.29287 2.68991 4.23328 2.70314 4.17808 2.72773C4.12288 2.75233 4.0732 2.78779 4.032 2.832L3.15 3.714L2.868 3.432C2.7827 3.35251 2.66987 3.30924 2.55329 3.31129C2.43671 3.31335 2.32547 3.36058 2.24303 3.44303C2.16058 3.52548 2.11335 3.63671 2.11129 3.75329C2.10924 3.86987 2.15251 3.9827 2.232 4.068L2.832 4.668C2.91638 4.75227 3.03075 4.7996 3.15 4.7996C3.26925 4.7996 3.38362 4.75227 3.468 4.668L4.668 3.468ZM4.668 6.132C4.75227 6.21638 4.7996 6.33075 4.7996 6.45C4.7996 6.56925 4.75227 6.68362 4.668 6.768L3.468 7.968C3.38362 8.05227 3.26925 8.0996 3.15 8.0996C3.03075 8.0996 2.91638 8.05227 2.832 7.968L2.232 7.368C2.18779 7.3268 2.15233 7.27712 2.12773 7.22192C2.10314 7.16672 2.08991 7.10713 2.08885 7.04671C2.08778 6.98629 2.09889 6.92627 2.12153 6.87024C2.14416 6.81421 2.17785 6.76331 2.22058 6.72058C2.26331 6.67785 2.31421 6.64416 2.37024 6.62153C2.42627 6.59889 2.48629 6.58778 2.54671 6.58885C2.60714 6.58991 2.66672 6.60314 2.72192 6.62773C2.77712 6.65233 2.8268 6.68779 2.868 6.732L3.15 7.014L4.032 6.132C4.11638 6.04773 4.23075 6.0004 4.35 6.0004C4.46925 6.0004 4.58362 6.04773 4.668 6.132ZM12 8.7C12 7.82479 11.6523 6.98542 11.0335 6.36655C10.4146 5.74768 9.57521 5.4 8.7 5.4C7.82479 5.4 6.98542 5.74768 6.36655 6.36655C5.74768 6.98542 5.4 7.82479 5.4 8.7C5.4 9.57521 5.74768 10.4146 6.36655 11.0335C6.98542 11.6523 7.82479 12 8.7 12C9.57521 12 10.4146 11.6523 11.0335 11.0335C11.6523 10.4146 12 9.57521 12 8.7ZM9 9L9.0006 10.5018C9.0006 10.5814 8.96899 10.6577 8.91273 10.7139C8.85647 10.7702 8.78016 10.8018 8.7006 10.8018C8.62103 10.8018 8.54473 10.7702 8.48847 10.7139C8.43221 10.6577 8.4006 10.5814 8.4006 10.5018V9H6.8976C6.81804 9 6.74173 8.96839 6.68547 8.91213C6.62921 8.85587 6.5976 8.77956 6.5976 8.7C6.5976 8.62044 6.62921 8.54413 6.68547 8.48787C6.74173 8.43161 6.81804 8.4 6.8976 8.4H8.4V6.9C8.4 6.82044 8.43161 6.74413 8.48787 6.68787C8.54413 6.63161 8.62043 6.6 8.7 6.6C8.77956 6.6 8.85587 6.63161 8.91213 6.68787C8.96839 6.74413 9 6.82044 9 6.9V8.4H10.4982C10.5778 8.4 10.6541 8.43161 10.7103 8.48787C10.7666 8.54413 10.7982 8.62044 10.7982 8.7C10.7982 8.77956 10.7666 8.85587 10.7103 8.91213C10.6541 8.96839 10.5778 9 10.4982 9H9Z" fill="black"/>
</svg>
