<svg width="12" height="12" viewBox="0 0 12 12" fill="none" xmlns="http://www.w3.org/2000/svg">
<path d="M6 11H2.5C2.23478 11 1.98043 10.8946 1.79289 10.7071C1.60536 10.5196 1.5 10.2652 1.5 10L1.505 3C1.505 2.45 1.945 2 2.5 2H3V1H4V2H8V1H9V2H9.5C10.05 2 10.5 2.45 10.5 3V6H9.5V5H2.5V10H6V11ZM11.065 8.495L11.42 8.14C11.4664 8.09374 11.5031 8.0388 11.5282 7.97831C11.5533 7.91783 11.5662 7.85298 11.5662 7.7875C11.5662 7.72202 11.5533 7.65717 11.5282 7.59669C11.5031 7.5362 11.4664 7.48126 11.42 7.435L11.065 7.08C11.0187 7.03365 10.9638 6.99687 10.9033 6.97178C10.8428 6.94669 10.778 6.93378 10.7125 6.93378C10.647 6.93378 10.5822 6.94669 10.5217 6.97178C10.4612 6.99687 10.4063 7.03365 10.36 7.08L10.005 7.435L11.065 8.495ZM10.71 8.85L8.06 11.5H7V10.44L9.65 7.79L10.71 8.85Z" fill="black"/>
</svg>
