<svg width="12" height="9" viewBox="0 0 12 9" fill="none" xmlns="http://www.w3.org/2000/svg">
<path fill-rule="evenodd" clip-rule="evenodd" d="M11.7363 0.258772C11.9052 0.424325 12 0.648834 12 0.882926C12 1.11702 11.9052 1.34153 11.7363 1.50708L4.98687 8.12411C4.89768 8.21158 4.79178 8.28096 4.67523 8.3283C4.55868 8.37564 4.43376 8.4 4.3076 8.4C4.18145 8.4 4.05653 8.37564 3.93998 8.3283C3.82343 8.28096 3.71753 8.21158 3.62833 8.12411L0.274909 4.83708C0.188903 4.75564 0.120302 4.65823 0.073108 4.55052C0.0259142 4.44281 0.001073 4.32697 3.39995e-05 4.20975C-0.001005 4.09253 0.021779 3.97628 0.0670565 3.86778C0.112334 3.75929 0.179198 3.66072 0.263748 3.57783C0.348297 3.49494 0.448838 3.42939 0.559505 3.385C0.670172 3.34061 0.788749 3.31827 0.908315 3.31929C1.02788 3.32031 1.14604 3.34466 1.25591 3.39093C1.36577 3.4372 1.46513 3.50445 1.5482 3.58877L4.3073 6.29373L10.4625 0.258772C10.5461 0.176735 10.6454 0.111656 10.7547 0.0672548C10.864 0.0228535 10.9811 0 11.0994 0C11.2177 0 11.3348 0.0228535 11.4441 0.0672548C11.5534 0.111656 11.6527 0.176735 11.7363 0.258772Z" fill="black"/>
</svg>
