<svg width="12" height="6" viewBox="0 0 12 6" fill="none" xmlns="http://www.w3.org/2000/svg">
<path d="M11.1417 1.81198e-05C10.9415 -0.000372887 10.7475 0.0693502 10.5933 0.197086L6.00084 4.03562L1.39979 0.334177C1.31215 0.263005 1.2113 0.209855 1.10306 0.177783C0.994808 0.14571 0.881288 0.135348 0.769022 0.147292C0.656756 0.159235 0.547957 0.193248 0.448879 0.247376C0.349801 0.301505 0.262396 0.374681 0.19169 0.462699C0.120519 0.550341 0.0673701 0.651185 0.0352983 0.759435C0.00322655 0.867684 -0.00713554 0.981205 0.00480767 1.09347C0.0167509 1.20574 0.0507638 1.31454 0.104892 1.41362C0.159019 1.5127 0.232195 1.6001 0.320212 1.67081L5.46105 5.80923C5.61436 5.93526 5.80667 6.00415 6.00513 6.00415C6.20358 6.00415 6.39589 5.93526 6.5492 5.80923L11.69 1.52515C11.7768 1.45322 11.8485 1.36488 11.9011 1.2652C11.9536 1.16551 11.986 1.05643 11.9964 0.944206C12.0067 0.831983 11.9948 0.718821 11.9614 0.611202C11.9279 0.503582 11.8736 0.40362 11.8014 0.31704C11.7217 0.218752 11.6212 0.139347 11.5071 0.0845327C11.393 0.0297179 11.2682 0.000854969 11.1417 1.81198e-05Z" fill="black"/>
</svg>
