<svg width="6" height="12" viewBox="0 0 6 12" fill="none" xmlns="http://www.w3.org/2000/svg">
<path d="M6.00413 11.1439C6.00452 10.9437 5.9348 10.7497 5.80706 10.5955L1.96853 6.00304L5.66997 1.40199C5.74115 1.31434 5.7943 1.2135 5.82637 1.10525C5.85844 0.997005 5.8688 0.883485 5.85686 0.771219C5.84492 0.658953 5.8109 0.550154 5.75677 0.451076C5.70265 0.351998 5.62947 0.264594 5.54145 0.193888C5.45381 0.122716 5.35297 0.0695673 5.24472 0.0374956C5.13647 0.00542381 5.02295 -0.00493827 4.91068 0.00700493C4.79841 0.0189481 4.68961 0.052961 4.59053 0.107089C4.49145 0.161217 4.40405 0.234392 4.33334 0.322409L0.194916 5.46325C0.0688934 5.61656 0 5.80887 0 6.00732C0 6.20578 0.0688934 6.39808 0.194916 6.5514L4.479 11.6922C4.55093 11.779 4.63927 11.8507 4.73895 11.9033C4.83864 11.9558 4.94772 11.9882 5.05994 11.9986C5.17217 12.0089 5.28533 11.997 5.39295 11.9636C5.50057 11.9301 5.60053 11.8758 5.68711 11.8036C5.7854 11.7239 5.8648 11.6234 5.91962 11.5093C5.97443 11.3952 6.0033 11.2704 6.00413 11.1439Z" fill="black"/>
</svg>
