<svg width="12" height="6" viewBox="0 0 12 6" fill="none" xmlns="http://www.w3.org/2000/svg">
<path d="M11.1417 5.99998C10.9415 6.00037 10.7475 5.93065 10.5933 5.80291L6.00084 1.96438L1.39979 5.66582C1.31215 5.737 1.2113 5.79015 1.10306 5.82222C0.994808 5.85429 0.881288 5.86465 0.769022 5.85271C0.656756 5.84076 0.547957 5.80675 0.448879 5.75262C0.349801 5.6985 0.262396 5.62532 0.19169 5.5373C0.120519 5.44966 0.0673701 5.34881 0.0352983 5.24057C0.00322655 5.13232 -0.00713554 5.0188 0.00480767 4.90653C0.0167509 4.79426 0.0507638 4.68546 0.104892 4.58638C0.159019 4.4873 0.232195 4.3999 0.320212 4.32919L5.46105 0.190765C5.61436 0.064743 5.80667 -0.00415039 6.00513 -0.00415039C6.20358 -0.00415039 6.39589 0.064743 6.5492 0.190765L11.69 4.47485C11.7768 4.54678 11.8485 4.63512 11.9011 4.7348C11.9536 4.83449 11.986 4.94357 11.9964 5.05579C12.0067 5.16802 11.9948 5.28118 11.9614 5.3888C11.9279 5.49642 11.8736 5.59638 11.8014 5.68296C11.7217 5.78125 11.6212 5.86065 11.5071 5.91547C11.393 5.97028 11.2682 5.99915 11.1417 5.99998Z" fill="black"/>
</svg>
