<svg width="6" height="12" viewBox="0 0 6 12" fill="none" xmlns="http://www.w3.org/2000/svg">
<path d="M-0.00413227 0.858315C-0.00452328 1.05851 0.0651999 1.25252 0.192935 1.40667L4.03147 5.99916L0.330027 10.6002C0.258854 10.6879 0.205704 10.7887 0.173632 10.8969C0.14156 11.0052 0.131198 11.1187 0.143141 11.231C0.155085 11.3432 0.189097 11.452 0.243226 11.5511C0.297354 11.6502 0.370531 11.7376 0.458549 11.8083C0.546191 11.8795 0.647035 11.9326 0.755284 11.9647C0.863534 11.9968 0.977055 12.0071 1.08932 11.9952C1.20159 11.9832 1.31039 11.9492 1.40947 11.8951C1.50855 11.841 1.59595 11.7678 1.66666 11.6798L5.80508 6.53895C5.93111 6.38564 6 6.19333 6 5.99487C6 5.79642 5.93111 5.60411 5.80508 5.4508L1.521 0.309959C1.44907 0.223201 1.36073 0.151484 1.26105 0.098917C1.16136 0.0463505 1.05228 0.0139656 0.940055 0.00361824C0.827832 -0.00672817 0.714671 0.00516701 0.607051 0.0386209C0.499432 0.0720739 0.39947 0.12643 0.31289 0.198574C0.214602 0.278303 0.135197 0.378817 0.0803823 0.492889C0.0255675 0.606961 -0.00329542 0.73176 -0.00413227 0.858315Z" fill="black"/>
</svg>
