<svg width="12" height="14" viewBox="0 0 12 14" fill="none" xmlns="http://www.w3.org/2000/svg">
<path d="M0 1.4C0 1.0287 0.158035 0.672601 0.43934 0.41005C0.720644 0.1475 1.10218 0 1.5 0H7.5C7.6989 3.96462e-05 7.88963 0.0738154 8.03025 0.2051L11.7803 3.7051C11.9209 3.83634 12 4.01436 12 4.2V12.6C12 12.9713 11.842 13.3274 11.5607 13.5899C11.2794 13.8525 10.8978 14 10.5 14H1.5C1.10218 14 0.720644 13.8525 0.43934 13.5899C0.158035 13.3274 0 12.9713 0 12.6V1.4ZM10.1895 4.2L7.5 1.6898V4.2H10.1895ZM6 1.4H1.5V12.6H10.5V5.6H6.75C6.55109 5.6 6.36032 5.52625 6.21967 5.39497C6.07902 5.2637 6 5.08565 6 4.9V1.4ZM3 7.7C3 7.51435 3.07902 7.3363 3.21967 7.20503C3.36032 7.07375 3.55109 7 3.75 7H8.25C8.44891 7 8.63968 7.07375 8.78033 7.20503C8.92098 7.3363 9 7.51435 9 7.7C9 7.88565 8.92098 8.0637 8.78033 8.19497C8.63968 8.32625 8.44891 8.4 8.25 8.4H3.75C3.55109 8.4 3.36032 8.32625 3.21967 8.19497C3.07902 8.0637 3 7.88565 3 7.7ZM3 10.5C3 10.3143 3.07902 10.1363 3.21967 10.005C3.36032 9.87375 3.55109 9.8 3.75 9.8H8.25C8.44891 9.8 8.63968 9.87375 8.78033 10.005C8.92098 10.1363 9 10.3143 9 10.5C9 10.6857 8.92098 10.8637 8.78033 10.995C8.63968 11.1263 8.44891 11.2 8.25 11.2H3.75C3.55109 11.2 3.36032 11.1263 3.21967 10.995C3.07902 10.8637 3 10.6857 3 10.5Z" fill="black"/>
</svg>
