<svg width="12" height="11" viewBox="0 0 12 11" fill="none" xmlns="http://www.w3.org/2000/svg">
<path d="M9.49521 8.48443L11 9.97668M0.767442 1.02319H10.3981M0.767442 4.60459H3.1751M0.767442 8.18598H3.1751M4.98085 6.39529C4.98085 7.02852 5.23451 7.63581 5.68604 8.08357C6.13756 8.53133 6.74996 8.78288 7.38851 8.78288C8.02706 8.78288 8.63946 8.53133 9.09098 8.08357C9.54251 7.63581 9.79617 7.02852 9.79617 6.39529C9.79617 5.76206 9.54251 5.15476 9.09098 4.707C8.63946 4.25924 8.02706 4.00769 7.38851 4.00769C6.74996 4.00769 6.13756 4.25924 5.68604 4.707C5.23451 5.15476 4.98085 5.76206 4.98085 6.39529Z" stroke="black" stroke-width="1.20383" stroke-linecap="round" stroke-linejoin="round"/>
</svg>
