<svg width="12" height="12" viewBox="0 0 12 12" fill="none" xmlns="http://www.w3.org/2000/svg">
<path d="M1.4535 3.375C2.9035 0.864 6.114 0.00349998 8.625 1.4535C9.61988 2.02784 10.399 2.91258 10.8429 3.97212C11.2867 5.03166 11.3709 6.20753 11.0825 7.3195C10.9235 7.932 10.1775 8.1045 9.7535 7.6925L9.706 7.6425L8.5805 6.349C8.079 5.773 8.5925 4.904 9.3195 5.035L9.386 5.05L9.645 5.117C9.44979 4.3124 8.99379 3.59502 8.34813 3.07675C7.70246 2.55848 6.90343 2.26846 6.07565 2.25192C5.24788 2.23538 4.4379 2.49324 3.77204 2.9853C3.10618 3.47736 2.62189 4.17595 2.39469 4.9721C2.16748 5.76826 2.21015 6.61723 2.51603 7.38659C2.82191 8.15596 3.3738 8.80247 4.08564 9.22529C4.79748 9.64811 5.62923 9.82347 6.45118 9.72402C7.27312 9.62457 8.03905 9.25589 8.6295 8.6755C8.69973 8.60642 8.78287 8.55186 8.87418 8.51491C8.96549 8.47797 9.06319 8.45937 9.16169 8.46019C9.26019 8.461 9.35756 8.4812 9.44825 8.51965C9.53894 8.55809 9.62117 8.61403 9.69025 8.68425C9.75933 8.75447 9.81389 8.83762 9.85084 8.92893C9.88778 9.02024 9.90638 9.11794 9.90556 9.21644C9.90475 9.31494 9.88455 9.41231 9.8461 9.503C9.80766 9.59369 9.75173 9.67592 9.6815 9.745C8.041 11.359 5.4665 11.754 3.375 10.5465C0.864 9.0965 0.00349998 5.8865 1.4535 3.375ZM6 2.75C6.18636 2.75 6.36605 2.81938 6.50405 2.94462C6.64206 3.06987 6.72849 3.24201 6.7465 3.4275L6.75 3.5V5.6895L7.78 6.7195C7.91656 6.85531 7.99564 7.03844 8.00086 7.23096C8.00609 7.42348 7.93705 7.61063 7.80805 7.75364C7.67905 7.89665 7.49999 7.98455 7.30795 7.99914C7.11591 8.01373 6.92562 7.95388 6.7765 7.832L6.7195 7.7805L5.4695 6.5305C5.34689 6.40788 5.27056 6.24656 5.2535 6.074L5.25 6V3.5C5.25 3.30109 5.32902 3.11032 5.46967 2.96967C5.61032 2.82902 5.80109 2.75 6 2.75Z" fill="black"/>
</svg>
