<svg width="12" height="9" viewBox="0 0 12 9" fill="none" xmlns="http://www.w3.org/2000/svg">
<path d="M8.74809 3.74834H11.8057C11.8426 3.74836 11.8788 3.75852 11.9099 3.77764C11.9411 3.79677 11.966 3.82406 11.9817 3.85633C11.9973 3.88859 12.0031 3.92449 11.9984 3.95983C11.9937 3.99516 11.9786 4.02847 11.955 4.05584L10.4262 5.82584C10.4079 5.84695 10.3851 5.86392 10.3593 5.87557C10.3335 5.88722 10.3054 5.89326 10.2769 5.89326C10.2484 5.89326 10.2203 5.88722 10.1945 5.87557C10.1687 5.86392 10.1458 5.84695 10.1276 5.82584L8.59879 4.05584C8.57515 4.02847 8.56008 3.99516 8.55536 3.95983C8.55063 3.92449 8.55644 3.88859 8.57211 3.85633C8.58777 3.82406 8.61265 3.79677 8.64381 3.77764C8.67498 3.75852 8.71115 3.74836 8.74809 3.74834ZM0.194331 5.24834H3.25191C3.28885 5.24833 3.32502 5.23817 3.35619 5.21904C3.38736 5.19992 3.41223 5.17263 3.42789 5.14036C3.44356 5.1081 3.44937 5.07219 3.44464 5.03686C3.43992 5.00152 3.42485 4.96822 3.40121 4.94084L1.87242 3.17084C1.85418 3.14974 1.83135 3.13277 1.80555 3.12112C1.77975 3.10947 1.75161 3.10343 1.72312 3.10343C1.69463 3.10343 1.66649 3.10947 1.64069 3.12112C1.61489 3.13277 1.59206 3.14974 1.57382 3.17084L0.0450289 4.94084C0.0213876 4.96822 0.00632235 5.00152 0.00159717 5.03686C-0.00312802 5.07219 0.00268248 5.1081 0.0183483 5.14036C0.0340141 5.17263 0.0588867 5.19992 0.0900536 5.21904C0.12122 5.23817 0.157391 5.24833 0.194331 5.24834Z" fill="black"/>
<path fill-rule="evenodd" clip-rule="evenodd" d="M6 0.748344C4.79314 0.748344 3.71381 1.27859 3.00074 2.11184C2.9689 2.15165 2.92909 2.18487 2.88366 2.20954C2.83824 2.2342 2.78814 2.24981 2.73634 2.25543C2.68455 2.26104 2.6321 2.25656 2.58214 2.24224C2.53217 2.22791 2.4857 2.20405 2.44549 2.17205C2.40528 2.14006 2.37215 2.1006 2.34807 2.05601C2.32399 2.01142 2.30945 1.96262 2.30532 1.9125C2.30119 1.86238 2.30755 1.81198 2.32402 1.76428C2.34049 1.71658 2.36674 1.67256 2.4012 1.63484C2.97056 0.969989 3.72594 0.476852 4.57748 0.214085C5.42903 -0.0486813 6.34091 -0.0700189 7.20466 0.15261C8.06842 0.375239 8.8477 0.832466 9.44982 1.46991C10.0519 2.10735 10.4516 2.89818 10.6011 3.74834H9.81031C9.63078 2.90145 9.15352 2.14034 8.45923 1.5937C7.76495 1.04707 6.89624 0.748449 6 0.748344ZM2.18969 5.24834C2.3369 5.94181 2.68453 6.58096 3.19241 7.09195C3.70029 7.60294 4.34769 7.96491 5.05983 8.13606C5.77198 8.3072 6.51979 8.28053 7.21688 8.05912C7.91397 7.83772 8.5319 7.43061 8.99926 6.88484C9.0311 6.84504 9.07091 6.81182 9.11633 6.78715C9.16176 6.76248 9.21185 6.74688 9.26365 6.74126C9.31545 6.73564 9.3679 6.74013 9.41786 6.75445C9.46783 6.76877 9.5143 6.79264 9.55451 6.82463C9.59472 6.85663 9.62785 6.89609 9.65193 6.94068C9.67601 6.98527 9.69055 7.03407 9.69468 7.08419C9.69881 7.1343 9.69245 7.18471 9.67598 7.23241C9.65951 7.28011 9.63326 7.32412 9.5988 7.36184C9.02944 8.0267 8.27406 8.51983 7.42252 8.7826C6.57097 9.04537 5.65909 9.06671 4.79534 8.84408C3.93158 8.62145 3.1523 8.16422 2.55018 7.52678C1.94806 6.88934 1.54844 6.0985 1.39886 5.24834H2.18969Z" fill="black"/>
</svg>
