<svg width="12" height="12" viewBox="0 0 12 12" fill="none" xmlns="http://www.w3.org/2000/svg">
<path d="M11.9003 6.80999L11.2963 7.40999L10.0579 6.17999L10.662 5.57999C10.7888 5.44799 11.0003 5.44799 11.1271 5.57999L11.9003 6.34799C12.0332 6.47399 12.0332 6.68399 11.9003 6.80999ZM6.04078 10.164L9.70753 6.52799L10.9459 7.75799L7.28518 11.4H6.04078V10.164ZM1.20816 0H9.66524C9.98566 0 10.293 0.126428 10.5195 0.351471C10.7461 0.576515 10.8734 0.881739 10.8734 1.2V3.70199L8.55978 5.99999H6.04078V8.50199L4.93531 9.59999H1.20816C0.887732 9.59999 0.580433 9.47356 0.35386 9.24851C0.127287 9.02347 0 8.71825 0 8.39999V1.2C0 0.881739 0.127287 0.576515 0.35386 0.351471C0.580433 0.126428 0.887732 0 1.20816 0ZM1.20816 2.4V4.79999H4.83262V2.4H1.20816ZM6.04078 2.4V4.79999H9.66524V2.4H6.04078ZM1.20816 5.99999V8.39999H4.83262V5.99999H1.20816Z" fill="black"/>
</svg>
