<svg width="12" height="12" viewBox="0 0 12 12" fill="none" xmlns="http://www.w3.org/2000/svg">
<path d="M12 10.9615L8.42077 7.38173C8.99758 6.58908 9.30787 5.63377 9.30692 4.65346C9.30692 2.0876 7.21933 0 4.65346 0C2.0876 0 0 2.0876 0 4.65346C0 7.21933 2.0876 9.30692 4.65346 9.30692C5.63377 9.30787 6.58908 8.99758 7.38173 8.42077L10.9615 12L12 10.9615ZM4.65346 7.83721C4.02369 7.83727 3.40805 7.65057 2.8844 7.30072C2.36074 6.95088 1.95259 6.4536 1.71156 5.87179C1.47053 5.28997 1.40745 4.64974 1.5303 4.03207C1.65315 3.4144 1.9564 2.84703 2.40172 2.40172C2.84703 1.9564 3.4144 1.65315 4.03207 1.5303C4.64974 1.40745 5.28997 1.47053 5.87179 1.71156C6.4536 1.95259 6.95088 2.36074 7.30072 2.8844C7.65057 3.40805 7.83727 4.02369 7.83721 4.65346C7.83622 5.49754 7.50047 6.30676 6.90362 6.90362C6.30676 7.50047 5.49754 7.83622 4.65346 7.83721Z" fill="black"/>
</svg>
