<svg width="22" height="22" viewBox="0 0 22 22" fill="none" xmlns="http://www.w3.org/2000/svg">
<path d="M11 20.1666H4.58333C4.0971 20.1666 3.63079 19.9735 3.28697 19.6297C2.94315 19.2859 2.75 18.8195 2.75 18.3333L2.75917 5.49998C2.75917 4.49165 3.56583 3.66665 4.58333 3.66665H5.5V1.83331H7.33333V3.66665H14.6667V1.83331H16.5V3.66665H17.4167C18.425 3.66665 19.25 4.49165 19.25 5.49998V11H17.4167V9.16665H4.58333V18.3333H11V20.1666ZM20.2858 15.5741L20.9367 14.9233C21.0216 14.8385 21.0891 14.7378 21.1351 14.6269C21.1811 14.516 21.2047 14.3971 21.2047 14.2771C21.2047 14.157 21.1811 14.0381 21.1351 13.9272C21.0891 13.8163 21.0216 13.7156 20.9367 13.6308L20.2858 12.98C20.201 12.895 20.1003 12.8276 19.9894 12.7816C19.8785 12.7356 19.7596 12.7119 19.6396 12.7119C19.5195 12.7119 19.4007 12.7356 19.2898 12.7816C19.1789 12.8276 19.0781 12.895 18.9933 12.98L18.3425 13.6308L20.2858 15.5741ZM19.635 16.225L14.7767 21.0833H12.8333V19.14L17.6917 14.2816L19.635 16.225Z" fill="#100F41"/>
</svg>
