<svg width="12" height="12" viewBox="0 0 12 12" fill="none" xmlns="http://www.w3.org/2000/svg">
<path d="M12 6.00009C12 4.40877 11.3679 2.88262 10.2426 1.75738C9.11742 0.632149 7.5913 0 6 0C4.4087 0 2.88258 0.632149 1.75736 1.75738C0.632141 2.88262 0 4.40877 0 6.00009C0 7.59141 0.632141 9.11756 1.75736 10.2428C2.88258 11.368 4.4087 12.0002 6 12.0002C7.5913 12.0002 9.11742 11.368 10.2426 10.2428C11.3679 9.11756 12 7.59141 12 6.00009ZM6.54545 6.54555L6.54655 9.27614C6.54655 9.42081 6.48908 9.55955 6.38679 9.66184C6.28449 9.76414 6.14575 9.8216 6.00109 9.8216C5.85643 9.8216 5.71769 9.76414 5.61539 9.66184C5.5131 9.55955 5.45564 9.42081 5.45564 9.27614V6.54555H2.72291C2.57824 6.54555 2.43951 6.48809 2.33721 6.38579C2.23492 6.2835 2.17745 6.14476 2.17745 6.00009C2.17745 5.85543 2.23492 5.71668 2.33721 5.61439C2.43951 5.51209 2.57824 5.45463 2.72291 5.45463H5.45455V2.72731C5.45455 2.58265 5.51201 2.44391 5.61431 2.34161C5.7166 2.23932 5.85534 2.18185 6 2.18185C6.14466 2.18185 6.2834 2.23932 6.3857 2.34161C6.48799 2.44391 6.54545 2.58265 6.54545 2.72731V5.45463H9.26945C9.41412 5.45463 9.55286 5.51209 9.65515 5.61439C9.75744 5.71668 9.81491 5.85543 9.81491 6.00009C9.81491 6.14476 9.75744 6.2835 9.65515 6.38579C9.55286 6.48809 9.41412 6.54555 9.26945 6.54555H6.54545Z" fill="black"/>
</svg>
